<svg width="174" height="153" viewBox="0 0 174 153" fill="none" xmlns="http://www.w3.org/2000/svg">
<path d="M7.04883 140.449H18.668V144H2.60156V118.406H7.04883V140.449ZM20.8652 134.314C20.8652 132.451 21.2344 130.775 21.9727 129.287C22.7109 127.787 23.748 126.639 25.084 125.842C26.4199 125.033 27.9551 124.629 29.6895 124.629C32.2559 124.629 34.3359 125.455 35.9297 127.107C37.5352 128.76 38.4023 130.951 38.5312 133.682L38.5488 134.684C38.5488 136.559 38.1855 138.234 37.459 139.711C36.7441 141.188 35.7129 142.33 34.3652 143.139C33.0293 143.947 31.4824 144.352 29.7246 144.352C27.041 144.352 24.8906 143.461 23.2734 141.68C21.668 139.887 20.8652 137.502 20.8652 134.525V134.314ZM25.1367 134.684C25.1367 136.641 25.541 138.176 26.3496 139.289C27.1582 140.391 28.2832 140.941 29.7246 140.941C31.166 140.941 32.2852 140.379 33.082 139.254C33.8906 138.129 34.2949 136.482 34.2949 134.314C34.2949 132.393 33.8789 130.869 33.0469 129.744C32.2266 128.619 31.1074 128.057 29.6895 128.057C28.2949 128.057 27.1875 128.613 26.3672 129.727C25.5469 130.828 25.1367 132.48 25.1367 134.684ZM43.6641 144V128.145H40.7637V124.98H43.6641V123.24C43.6641 121.131 44.25 119.502 45.4219 118.354C46.5938 117.205 48.2344 116.631 50.3438 116.631C51.0938 116.631 51.8906 116.736 52.7344 116.947L52.6289 120.287C52.1602 120.193 51.6152 120.146 50.9941 120.146C48.9551 120.146 47.9355 121.195 47.9355 123.293V124.98H51.8027V128.145H47.9355V144H43.6641ZM60.2754 120.357V124.98H63.6328V128.145H60.2754V138.762C60.2754 139.488 60.416 140.016 60.6973 140.344C60.9902 140.66 61.5059 140.818 62.2441 140.818C62.7363 140.818 63.2344 140.76 63.7383 140.643V143.947C62.7656 144.217 61.8281 144.352 60.9258 144.352C57.6445 144.352 56.0039 142.541 56.0039 138.92V128.145H52.875V124.98H56.0039V120.357H60.2754ZM73.0898 118.406L80.4727 138.023L87.8379 118.406H93.5859V144H89.1562V135.562L89.5957 124.277L82.0371 144H78.8555L71.3145 124.295L71.7539 135.562V144H67.3242V118.406H73.0898ZM97.6465 134.314C97.6465 132.451 98.0156 130.775 98.7539 129.287C99.4922 127.787 100.529 126.639 101.865 125.842C103.201 125.033 104.736 124.629 106.471 124.629C109.037 124.629 111.117 125.455 112.711 127.107C114.316 128.76 115.184 130.951 115.312 133.682L115.33 134.684C115.33 136.559 114.967 138.234 114.24 139.711C113.525 141.188 112.494 142.33 111.146 143.139C109.811 143.947 108.264 144.352 106.506 144.352C103.822 144.352 101.672 143.461 100.055 141.68C98.4492 139.887 97.6465 137.502 97.6465 134.525V134.314ZM101.918 134.684C101.918 136.641 102.322 138.176 103.131 139.289C103.939 140.391 105.064 140.941 106.506 140.941C107.947 140.941 109.066 140.379 109.863 139.254C110.672 138.129 111.076 136.482 111.076 134.314C111.076 132.393 110.66 130.869 109.828 129.744C109.008 128.619 107.889 128.057 106.471 128.057C105.076 128.057 103.969 128.613 103.148 129.727C102.328 130.828 101.918 132.48 101.918 134.684ZM122.906 124.98L123.029 127.178C124.436 125.479 126.281 124.629 128.566 124.629C132.527 124.629 134.543 126.896 134.613 131.432V144H130.342V131.678C130.342 130.471 130.078 129.58 129.551 129.006C129.035 128.42 128.186 128.127 127.002 128.127C125.279 128.127 123.996 128.906 123.152 130.465V144H118.881V124.98H122.906ZM147.357 144.352C144.65 144.352 142.453 143.502 140.766 141.803C139.09 140.092 138.252 137.818 138.252 134.982V134.455C138.252 132.557 138.615 130.863 139.342 129.375C140.08 127.875 141.111 126.709 142.436 125.877C143.76 125.045 145.236 124.629 146.865 124.629C149.455 124.629 151.453 125.455 152.859 127.107C154.277 128.76 154.986 131.098 154.986 134.121V135.844H142.559C142.688 137.414 143.209 138.656 144.123 139.57C145.049 140.484 146.209 140.941 147.604 140.941C149.561 140.941 151.154 140.15 152.385 138.568L154.688 140.766C153.926 141.902 152.906 142.787 151.629 143.42C150.363 144.041 148.939 144.352 147.357 144.352ZM146.848 128.057C145.676 128.057 144.727 128.467 144 129.287C143.285 130.107 142.828 131.25 142.629 132.715H150.768V132.398C150.674 130.969 150.293 129.891 149.625 129.164C148.957 128.426 148.031 128.057 146.848 128.057ZM164.725 137.883L168.592 124.98H173.145L165.586 146.883C164.426 150.082 162.457 151.682 159.68 151.682C159.059 151.682 158.373 151.576 157.623 151.365V148.061L158.432 148.113C159.51 148.113 160.318 147.914 160.857 147.516C161.408 147.129 161.842 146.473 162.158 145.547L162.773 143.912L156.094 124.98H160.699L164.725 137.883Z" fill="white"/>
<path fill-rule="evenodd" clip-rule="evenodd" d="M133.588 45.0606L133.586 45.056L133.586 45.0557L133.584 45.0532C133.582 45.0497 133.58 45.0462 133.578 45.0427L119.773 23.2455C119.265 22.4424 118.386 21.9787 117.471 21.9787H117.463H57.5373H57.5291C56.5822 21.9787 55.7176 22.4711 55.2274 23.2455C55.0873 23.4665 41.4819 44.9479 41.4074 45.0683C41.3941 45.0898 41.3815 45.1117 41.3689 45.1337L41.3633 45.1435C40.7457 46.2174 40.9355 47.5544 41.7874 48.4163L41.7912 48.4205C41.7933 48.4228 41.7953 48.4251 41.7976 48.4272L85.5735 92.2031L85.5783 92.2076L85.5843 92.213C85.588 92.2161 85.5917 92.2193 85.5951 92.2228C86.6474 93.2525 88.339 93.2659 89.405 92.2228L89.41 92.2181L89.4149 92.2139C89.4189 92.2104 89.4229 92.207 89.4266 92.2031L133.203 48.4272C133.206 48.4236 133.209 48.4198 133.213 48.4163C134.095 47.5243 134.256 46.1411 133.593 45.0683L133.588 45.0606ZM112.555 27.4281L103.643 41.6869L92.9494 27.4281H112.555ZM76.6016 43.7759H98.3988L87.5002 29.2445L76.6016 43.7759ZM82.0509 27.4281L71.3569 41.6869L62.445 27.4281H82.0509ZM66.2364 43.7759L57.5138 29.8198L48.6748 43.7759H66.2364ZM50.302 49.2253H69.2615L80.5617 79.4847L50.302 49.2253ZM75.0781 49.2252L87.5 82.4885L99.922 49.2252H75.0781ZM94.4388 79.4847L105.739 49.2253H124.698L94.4388 79.4847ZM117.487 29.8198L108.764 43.7759H126.325L117.487 29.8198Z" fill="white"/>
<path d="M87.5002 0C85.9955 0 84.7756 1.2199 84.7756 2.72461V13.6232C84.7756 15.1279 85.9955 16.3478 87.5002 16.3478C89.0049 16.3478 90.2248 15.1279 90.2248 13.6232V2.72461C90.2248 1.2199 89.0049 0 87.5002 0Z" fill="white"/>
<path d="M76.4848 12.4636L68.7783 7.48177C67.5144 6.66475 65.8279 7.02712 65.0109 8.2908C64.1941 9.55465 64.5562 11.2412 65.8199 12.0582L73.5266 17.0401C74.7908 17.8573 76.4773 17.4943 77.294 16.231C78.1108 14.9672 77.7484 13.2806 76.4848 12.4636Z" fill="white"/>
<path d="M109.99 8.29081C109.173 7.02714 107.486 6.66494 106.222 7.48178L98.5156 12.4636C97.2519 13.2807 96.8897 14.9672 97.7066 16.231C98.5229 17.4938 100.209 17.8575 101.474 17.0401L109.181 12.0582C110.444 11.2412 110.806 9.55467 109.99 8.29081Z" fill="white"/>
</svg>
